<svg width="24" height="20" viewBox="0 0 24 20" fill="none" xmlns="http://www.w3.org/2000/svg">
<g clip-path="url(#clip0_51_1448)">
<path d="M21.7914 0H2.20861C0.990797 0 0 0.67265 0 1.50051C0 2.32732 0.990797 3 2.20861 3H21.7914C23.0092 3 24 2.32732 24 1.50051C24 0.67265 23.0092 0 21.7914 0Z" fill="#333333"/>
<path d="M21.7914 8.5H2.20861C0.990797 8.5 0 9.17265 0 10.0005C0 10.8273 0.990797 11.5 2.20861 11.5H21.7914C23.0092 11.5 24 10.8273 24 10.0005C24 9.17265 23.0092 8.5 21.7914 8.5Z" fill="#00B9B6"/>
<path d="M21.7914 17H2.20861C0.990797 17 0 17.6727 0 18.5005C0 19.3273 0.990797 20 2.20861 20H21.7914C23.0092 20 24 19.3273 24 18.5005C24 17.6727 23.0092 17 21.7914 17Z" fill="#333333"/>
</g>
<defs>
<clipPath id="clip0_51_1448">
<rect width="24" height="20" fill="white"/>
</clipPath>
</defs>
</svg>
