<svg width="41" height="41" viewBox="0 0 41 41" fill="none" xmlns="http://www.w3.org/2000/svg">
<path d="M3.49237 3.71263C0.358064 6.96761 0.999549 10.4253 0.999549 20.9296C0.999549 29.6528 -0.522731 38.3975 7.44431 40.4562C9.93215 41.0959 31.9753 41.0959 34.4598 40.4529C37.7769 39.5972 40.4758 36.9071 40.8447 32.2166C40.8963 31.5619 40.8963 10.309 40.8431 9.64104C40.4509 4.64476 37.3747 1.76529 33.3214 1.18208C32.3924 1.0475 32.2063 1.00762 27.44 0.999311C10.5337 1.00762 6.82776 0.254936 3.49237 3.71263V3.71263Z" fill="url(#paint0_linear_1_339)"/>
<path d="M20.9389 6.21489C14.9046 6.21489 9.17446 5.67821 6.98577 11.2943C6.08171 13.6138 6.213 16.6262 6.213 20.9396C6.213 24.7246 6.09168 28.282 6.98577 30.5832C9.16948 36.2026 14.9462 35.6642 20.9356 35.6642C26.7139 35.6642 32.6718 36.2657 34.887 30.5832C35.7928 28.2404 35.6598 25.2729 35.6598 20.9396C35.6598 15.1873 35.9772 11.4737 33.1869 8.68562C30.3617 5.86098 26.5411 6.21489 20.9322 6.21489H20.9389ZM19.6194 8.86839C32.2064 8.84845 33.8085 7.44943 32.9244 26.8846C32.6103 33.7584 27.3753 33.0041 20.9406 33.0041C9.2077 33.0041 8.87034 32.6685 8.87034 20.9329C8.87034 9.06113 9.80099 8.87504 19.6194 8.86507V8.86839ZM28.7996 11.3125C27.8241 11.3125 27.033 12.1034 27.033 13.0788C27.033 14.0541 27.8241 14.845 28.7996 14.845C29.7751 14.845 30.5662 14.0541 30.5662 13.0788C30.5662 12.1034 29.7751 11.3125 28.7996 11.3125V11.3125ZM20.9389 13.3778C16.7626 13.3778 13.3774 16.7641 13.3774 20.9396C13.3774 25.1151 16.7626 28.4996 20.9389 28.4996C25.1152 28.4996 28.4988 25.1151 28.4988 20.9396C28.4988 16.7641 25.1152 13.3778 20.9389 13.3778V13.3778ZM20.9389 16.0313C27.4285 16.0313 27.4368 25.8478 20.9389 25.8478C14.4509 25.8478 14.441 16.0313 20.9389 16.0313Z" fill="white"/>
<defs>
<linearGradient id="paint0_linear_1_339" x1="3.56885" y1="38.3296" x2="40.6316" y2="6.2459" gradientUnits="userSpaceOnUse">
<stop stop-color="#FFDD55"/>
<stop offset="0.5" stop-color="#FF543E"/>
<stop offset="1" stop-color="#C837AB"/>
</linearGradient>
</defs>
</svg>
